<?xml version="1.0" standalone="no"?><!DOCTYPE svg PUBLIC "-//W3C//DTD SVG 1.1//EN" "http://www.w3.org/Graphics/SVG/1.1/DTD/svg11.dtd"><svg t="1691743190763" class="icon" viewBox="0 0 1024 1024" version="1.1" xmlns="http://www.w3.org/2000/svg" p-id="1213" xmlns:xlink="http://www.w3.org/1999/xlink" width="200" height="200"><path d="M510.59375 85.4375C276.78125 85.4375 87.21875 275 87.21875 508.8125s189.5625 423.375 423.375 423.375S933.96875 742.625 933.96875 508.8125 744.40625 85.4375 510.59375 85.4375z m233.25 479.625H565.90625v177.84375c0 31.5-25.6875 57.28125-57.1875 57.28125s-57.1875-25.6875-57.1875-57.1875V565.0625H273.6875c-31.40625 0-57.1875-25.6875-57.1875-57.1875 0-31.40625 25.6875-57.1875 57.1875-57.1875h177.84375V272.84375c0-31.40625 25.6875-57.1875 57.1875-57.1875s57.1875 25.6875 57.1875 57.1875v177.84375h177.84375c31.40625 0 57.1875 25.6875 57.1875 57.1875s-25.6875 57.1875-57.09375 57.1875z" p-id="1214"></path></svg>