<?xml version="1.0" standalone="no"?><!DOCTYPE svg PUBLIC "-//W3C//DTD SVG 1.1//EN" "http://www.w3.org/Graphics/SVG/1.1/DTD/svg11.dtd"><svg t="1691743265366" class="icon" viewBox="0 0 1024 1024" version="1.1" xmlns="http://www.w3.org/2000/svg" p-id="1491" xmlns:xlink="http://www.w3.org/1999/xlink" width="200" height="200"><path d="M991.99959969 591.99996687a24.59998969 24.59998969 0 0 0 0-3.99999843 30.39998719 30.39998719 0 0 0 0-4.19999813L878.39964687 92.00017531a79.99996687 79.99996687 0 0 0-77.59996687-59.99997562H223.19992063a79.99996687 79.99996687 0 0 0-77.7999675 61.39997437L32.99999938 582.99997062a30.39998719 30.39998719 0 0 0-1e-8 4.19999813A24.59998969 24.59998969 0 0 0 32 591.99996687v319.99986657a79.99996687 79.99996687 0 0 0 79.99996687 79.99996687h799.99966688a79.99996687 79.99996687 0 0 0 79.99996594-79.99996687V591.99996687zM223.19992063 112.00016656h577.39975874l101.19995813 439.99981688H731.99970875a39.99998344 39.99998344 0 0 0-39.99998344 39.99998343v99.99995813H331.99987531v-99.99995813a39.99998344 39.99998344 0 0 0-39.99998343-39.99998343H122.19996219zM231.99991625 432.00003313a39.99998344 39.99998344 0 0 1 39.99998344-39.99998344h479.99980031a39.99998344 39.99998344 0 0 1 0 79.99996687H271.99989969a39.99998344 39.99998344 0 0 1-39.99998344-39.99998343z m59.99997562-179.999925a39.99998344 39.99998344 0 0 1 39.99998344-39.99998344h359.99985a39.99998344 39.99998344 0 0 1 0 79.99996687H331.99987531a39.99998344 39.99998344 0 0 1-39.99998343-39.99998343z" p-id="1492"></path></svg>