<?xml version="1.0" standalone="no"?><!DOCTYPE svg PUBLIC "-//W3C//DTD SVG 1.1//EN" "http://www.w3.org/Graphics/SVG/1.1/DTD/svg11.dtd"><svg t="1691743215376" class="icon" viewBox="0 0 1024 1024" version="1.1" xmlns="http://www.w3.org/2000/svg" p-id="1352" xmlns:xlink="http://www.w3.org/1999/xlink" width="200" height="200"><path d="M550.84368 589.688383c0 21.452591-17.391089 38.844703-38.844703 38.844703l-67.977207 0c-21.452591 0-38.844703-17.391089-38.844703-38.844703L405.177066 434.311617c0-21.452591 17.391089-38.844703 38.844703-38.844703l67.977207 0c21.452591 0 38.844703 17.391089 38.844703 38.844703L550.84368 589.688383zM647.967718 628.533087l67.977207 0c21.453614 0 38.8314-17.391089 38.8314-38.844703L754.776326 490.647693c0-9.53619-2.15099-18.135032-8.495488-25.25315l-51.0507-58.150398c-7.373944-8.260128-17.916045-11.778254-28.987195-11.778254l-18.520819 0c-21.451568 0-38.611389 14.97404-38.611389 36.426631l0 157.794839C609.110735 611.141998 626.515127 628.533087 647.967718 628.533087zM346.911034 434.311617c0-21.452591-17.391089-38.844703-38.844703-38.844703l-67.977207 0c-21.452591 0-38.844703 17.391089-38.844703 38.844703l0 155.376767c0 21.452591 17.391089 38.844703 38.844703 38.844703l67.977207 0c21.452591 0 38.844703-17.391089 38.844703-38.844703L346.911034 434.311617zM958.708971 440.219163l0 143.570883c0 21.451568-17.379832 35.031864-38.8314 35.031864l-29.145807 0 0 106.821911c0 21.451568-16.933671 38.844703-38.386262 38.844703L104.146988 764.488525c-21.450545 0-38.856983-17.392112-38.856983-38.844703L65.290005 298.356179c0-21.451568 17.406438-38.844703 38.856983-38.844703l748.198513 0c21.451568 0 38.386262 17.392112 38.386262 38.844703l0 106.821911 29.145807 0C941.329139 405.178089 958.708971 418.767596 958.708971 440.219163zM813.043381 337.200882 142.979412 337.200882l0 349.598236 670.063969 0L813.043381 583.790046 813.043381 440.219163 813.043381 337.200882z" p-id="1353"></path></svg>