<?xml version="1.0" standalone="no"?><!DOCTYPE svg PUBLIC "-//W3C//DTD SVG 1.1//EN" "http://www.w3.org/Graphics/SVG/1.1/DTD/svg11.dtd"><svg t="1691743292789" class="icon" viewBox="0 0 1024 1024" version="1.1" xmlns="http://www.w3.org/2000/svg" p-id="1630" xmlns:xlink="http://www.w3.org/1999/xlink" width="200" height="200"><path d="M250.66666667 224m-192 0a192 192 0 1 0 384 0 192 192 0 1 0-384 0Z" p-id="1631"></path><path d="M773.33333333 224m-192 0a192 192 0 1 0 384 0 192 192 0 1 0-384 0Z" p-id="1632"></path><path d="M256 460.8a153.6 153.6 0 0 0-153.6 153.6v409.6h307.2v-409.6a153.6 153.6 0 0 0-153.6-153.6zM768 460.8a153.6 153.6 0 0 0-153.6 153.6v409.6h307.2v-409.6a153.6 153.6 0 0 0-153.6-153.6z" p-id="1633"></path></svg>