<?xml version="1.0" standalone="no"?><!DOCTYPE svg PUBLIC "-//W3C//DTD SVG 1.1//EN" "http://www.w3.org/Graphics/SVG/1.1/DTD/svg11.dtd"><svg t="1691743348492" class="icon" viewBox="0 0 1024 1024" version="1.1" xmlns="http://www.w3.org/2000/svg" p-id="2188" xmlns:xlink="http://www.w3.org/1999/xlink" width="200" height="200"><path d="M512 576a32 32 0 0 1-17.184-4.992L128 337.568v430.656A64 64 0 0 0 192.064 832h639.872A64 64 0 0 0 896 768.224V337.888l-366.816 233.12A32.096 32.096 0 0 1 512 576" p-id="2189"></path><path d="M831.936 192H192.064A64 64 0 0 0 128 255.808v4.896l384 245.376 384-244.032v-6.24A64 64 0 0 0 831.936 192" p-id="2190"></path></svg>