<?xml version="1.0" standalone="no"?><!DOCTYPE svg PUBLIC "-//W3C//DTD SVG 1.1//EN" "http://www.w3.org/Graphics/SVG/1.1/DTD/svg11.dtd"><svg t="1691743327877" class="icon" viewBox="0 0 1024 1024" version="1.1" xmlns="http://www.w3.org/2000/svg" p-id="1910" xmlns:xlink="http://www.w3.org/1999/xlink" width="200" height="200"><path d="M844.15625 720.940625c-1.040625-1.4625-104.79375-145.8-104.79375-252.590625 0-148.05-66.9375-223.93125-142.9875-252.253125L596.375 202.625c0-46.51875-37.85625-84.375-84.375-84.375s-84.375 37.85625-84.375 84.375l0 13.44375c-76.05 28.321875-142.9875 104.203125-142.9875 252.253125 0 106.5375-103.725 250.70625-104.765625 252.140625-4.753125 6.553125-6.46875 14.878125-4.66875 22.809375 1.8 7.875 6.91875 14.653125 14.0625 18.478125 4.978125 2.7 94.3875 50.34375 205.25625 74.278125C413.3375 894.3875 459.40625 933.875 512 933.875s98.6625-39.4875 117.45-97.81875c110.840625-23.821875 200.25-71.184375 205.228125-73.85625 7.171875-3.825 12.31875-10.575 14.11875-18.478125S848.909375 727.49375 844.15625 720.940625zM483.875 202.625c0-15.496875 12.628125-28.125 28.125-28.125s28.125 12.628125 28.125 28.125l0 0.815625C533.825 202.90625 527.58125 202.625 521.39375 202.625l-18.7875 0C496.41875 202.625 490.175 202.90625 483.875 203.440625L483.875 202.625zM512 877.625c-19.63125 0-37.9125-11.784375-50.9625-31.021875C477.9125 848.375 494.95625 849.5 512 849.5s34.0875-1.125 50.9625-2.896875C549.9125 865.86875 531.603125 877.625 512 877.625z" p-id="1911"></path></svg>