<?xml version="1.0" standalone="no"?><!DOCTYPE svg PUBLIC "-//W3C//DTD SVG 1.1//EN" "http://www.w3.org/Graphics/SVG/1.1/DTD/svg11.dtd"><svg t="1691743337307" class="icon" viewBox="0 0 1024 1024" version="1.1" xmlns="http://www.w3.org/2000/svg" p-id="2049" xmlns:xlink="http://www.w3.org/1999/xlink" width="200" height="200"><path d="M396.75403979 918.09339866a420.17795013 420.17795013 0 0 1-131.25767047-63.29898771l1.78334061-85.29351581a76.70280186 76.70280186 0 0 0-61.17048495-76.70280267l-83.66358198-17.29648197A419.75608503 419.75608503 0 0 1 90.13458777 533.40966928l67.76692575-51.77439102a76.70280186 76.70280186 0 0 0 21.84112298-95.66757037l-38.63903686-76.12753079A423.64875202 423.64875202 0 0 1 232.03477198 195.93651602l82.74314794 20.70975641a76.70280186 76.70280186 0 0 0 88.3999792-42.57005576l35.43669496-77.66158694a424.5500105 424.5500105 0 0 1 72.86766229-6.27045419c24.83253232 0 49.16649655 2.14767829 72.84848594 6.27045419l35.43669497 77.66158694a76.70280186 76.70280186 0 0 0 88.39997919 42.57005576l82.72397242-20.70975641a423.64875202 423.64875202 0 0 1 90.93117233 113.90366108l-38.61986133 76.12753079a76.70280186 76.70280186 0 0 0 21.82194745 95.66757037l67.76692575 51.77439102a419.75608503 419.75608503 0 0 1-32.31105524 142.09194122l-83.64440643 17.27730643a76.70280186 76.70280186 0 0 0-61.17048413 76.70280185l1.76416424 85.31269217a420.17795013 420.17795013 0 0 1-131.25767047 63.27981217l-65.65759853-54.61239524a76.70280186 76.70280186 0 0 0-98.10288419 0l-65.65759855 54.63157078zM511.46308002 684.59089255a172.58130478 172.58130478 0 1 0 0-345.16260957 172.58130478 172.58130478 0 0 0 0 345.16260957z" p-id="2050"></path></svg>