<?xml version="1.0" standalone="no"?><!DOCTYPE svg PUBLIC "-//W3C//DTD SVG 1.1//EN" "http://www.w3.org/Graphics/SVG/1.1/DTD/svg11.dtd"><svg t="1691743317374" class="icon" viewBox="0 0 1024 1024" version="1.1" xmlns="http://www.w3.org/2000/svg" p-id="1771" xmlns:xlink="http://www.w3.org/1999/xlink" width="200" height="200"><path d="M512 92C280.4 92 92 280.4 92 512s188.4 420 420 420 420-188.4 420-420S743.6 92 512 92zM661.31 572l-179.16 0C465.59 572 452 558.44 452 541.85L452 303.02c0-16.56 13.44-30 30-30s30 13.44 30 30L512 512l149.31 0c16.59 0 30 13.44 30 30C691.31 558.59 677.87 572 661.31 572z" p-id="1772"></path></svg>